<?xml version="1.0" encoding="UTF-8"?>
<!DOCTYPE svg PUBLIC "-//W3C//DTD SVG 1.1//EN" "http://www.w3.org/Graphics/SVG/1.1/DTD/svg11.dtd">
<!-- Creator: CorelDRAW X5 -->
<svg xmlns="http://www.w3.org/2000/svg" xml:space="preserve" width="15.4785mm" height="4.1795mm" style="shape-rendering:geometricPrecision; text-rendering:geometricPrecision; image-rendering:optimizeQuality; fill-rule:evenodd; clip-rule:evenodd"
viewBox="0 0 0.866006 0.233839"
 xmlns:xlink="http://www.w3.org/1999/xlink">
 <defs>
  <style type="text/css">
   <![CDATA[
    .str0 {stroke:#2A2A29;stroke-width:0.0111898}
    .fil0 {fill:none}
    .fil1 {fill:#00A0E3}
    .fil2 {fill:#FEFEFE}
   ]]>
  </style>
 </defs>
 <g id="Слой_x0020_1">
  <metadata id="CorelCorpID_0Corel-Layer"/>
  <path class="fil0 str0" d="M0.0478196 0.0055949l0.770367 0c0.0232244,0 0.0422247,0.0190003 0.0422247,0.0422247l0 0.1382c0,0.0232244 -0.0190003,0.0422247 -0.0422247,0.0422247l-0.770367 0c-0.0232244,0 -0.0422247,-0.0190003 -0.0422247,-0.0422247l0 -0.1382c0,-0.0232244 0.0190003,-0.0422247 0.0422247,-0.0422247zm0.803427 0.016035l-0.118064 0.206614m0.0178925 -0.222649l-0.127228 0.222649m0.0178925 -0.222649l-0.127228 0.222649m0.0178925 -0.222649l-0.127228 0.222649m0.0178925 -0.222649l-0.127228 0.222649m0.0178925 -0.222649l-0.127228 0.222649m0.0178869 -0.222649l-0.127222 0.222649m0.0178869 -0.222649l-0.0894624 0.156562"/>
  <path class="fil1 str0" d="M0.0771704 0.228244l0.127222 -0.222649 -0.109336 0 -0.0894624 0.156562 0 0.0238622c0,0.0232244 0.0190003,0.0422247 0.0422247,0.0422247l0.0293508 0z"/>
  <polygon class="fil1 str0" points="0.313734,0.0055949 0.186506,0.228244 0.295841,0.228244 0.423069,0.0055949 "/>
  <polygon class="fil1 str0" points="0.532405,0.0055949 0.405177,0.228244 0.514512,0.228244 0.64174,0.0055949 "/>
  <path class="fil1 str0" d="M0.751076 0.0055949l-0.127228 0.222649 0.109336 0 0.118064 -0.206614c-0.00774893,-0.00975191 -0.0197108,-0.016035 -0.0330603,-0.016035l-0.0671108 0z"/>
  <path class="fil2 str0" d="M0.0055949 0.162157l0.0894624 -0.156562 -0.0472377 0c-0.0232244,0 -0.0422247,0.0190003 -0.0422247,0.0422247l0 0.114337z"/>
  <polygon class="fil2 str0" points="0.204393,0.0055949 0.0771704,0.228244 0.186506,0.228244 0.313734,0.0055949 "/>
  <polygon class="fil2 str0" points="0.423069,0.0055949 0.295841,0.228244 0.405177,0.228244 0.532405,0.0055949 "/>
  <polygon class="fil2 str0" points="0.64174,0.0055949 0.514512,0.228244 0.623848,0.228244 0.751076,0.0055949 "/>
  <path class="fil2 str0" d="M0.851247 0.0216299l-0.118064 0.206614 0.0850033 0c0.0232244,0 0.0422247,-0.0190003 0.0422247,-0.0422247l0 -0.1382c0,-0.0098694 -0.00343527,-0.0189779 -0.00916444,-0.0261897z"/>
 </g>
</svg>
