<?xml version="1.0" encoding="UTF-8"?>
<!DOCTYPE svg PUBLIC "-//W3C//DTD SVG 1.1//EN" "http://www.w3.org/Graphics/SVG/1.1/DTD/svg11.dtd">
<!-- Creator: CorelDRAW X5 -->
<svg xmlns="http://www.w3.org/2000/svg" xml:space="preserve" width="4.1795mm" height="15.4785mm" style="shape-rendering:geometricPrecision; text-rendering:geometricPrecision; image-rendering:optimizeQuality; fill-rule:evenodd; clip-rule:evenodd"
viewBox="0 0 0.055407 0.205196"
 xmlns:xlink="http://www.w3.org/1999/xlink">
 <defs>
  <style type="text/css">
   <![CDATA[
    .str0 {stroke:#2A2A29;stroke-width:0.00265137}
    .fil0 {fill:none}
    .fil1 {fill:#00A0E3}
    .fil2 {fill:#FEFEFE}
   ]]>
  </style>
 </defs>
 <g id="Слой_x0020_1">
  <metadata id="CorelCorpID_0Corel-Layer"/>
  <path class="fil0 str0" d="M0.00132569 0.193866l0 -0.182535c0,-0.00550292 0.00450203,-0.010005 0.010005,-0.010005l0.0327458 0c0.00550292,0 0.010005,0.00450203 0.010005,0.010005l0 0.182535c0,0.00550292 -0.00450203,0.010005 -0.010005,0.010005l-0.0327458 0c-0.00550292,0 -0.010005,-0.00450203 -0.010005,-0.010005zm0.00379942 -0.190368l0.0489562 0.0279746m-0.0527557 -0.00423954l0.0527557 0.0301461m-0.0527557 -0.00423954l0.0527557 0.0301461m-0.0527557 -0.00423954l0.0527557 0.0301461m-0.0527557 -0.00423954l0.0527557 0.0301461m-0.0527557 -0.00423954l0.0527557 0.0301461m-0.0527557 -0.00423822l0.0527557 0.0301448m-0.0527557 -0.00423822l0.0370967 0.0211977"/>
  <path class="fil1 str0" d="M0.0540813 0.186911l-0.0527557 -0.0301448 0 0.0259066 0.0370967 0.0211977 0.00565405 0c0.00550292,0 0.010005,-0.00450203 0.010005,-0.010005l0 -0.00695455z"/>
  <polygon class="fil1 str0" points="0.00132569,0.130858 0.0540813,0.161005 0.0540813,0.135098 0.00132569,0.104952 "/>
  <polygon class="fil1 str0" points="0.00132569,0.0790453 0.0540813,0.109191 0.0540813,0.0832849 0.00132569,0.0531388 "/>
  <path class="fil1 str0" d="M0.00132569 0.0272322l0.0527557 0.0301461 0 -0.0259066 -0.0489562 -0.0279746c-0.00231067,0.00183607 -0.00379942,0.00467039 -0.00379942,0.00783348l0 0.0159016z"/>
  <path class="fil2 str0" d="M0.0384223 0.203871l-0.0370967 -0.0211977 0 0.0111928c0,0.00550292 0.00450203,0.010005 0.010005,0.010005l0.0270917 0z"/>
  <polygon class="fil2 str0" points="0.00132569,0.156766 0.0540813,0.186911 0.0540813,0.161005 0.00132569,0.130858 "/>
  <polygon class="fil2 str0" points="0.00132569,0.104952 0.0540813,0.135098 0.0540813,0.109191 0.00132569,0.0790453 "/>
  <polygon class="fil2 str0" points="0.00132569,0.0531388 0.0540813,0.0832849 0.0540813,0.0573783 0.00132569,0.0272322 "/>
  <path class="fil2 str0" d="M0.0051251 0.00349716l0.0489562 0.0279746 0 -0.0201411c0,-0.00550292 -0.00450203,-0.010005 -0.010005,-0.010005l-0.0327458 0c-0.00233851,0 -0.00449673,0.000813971 -0.00620553,0.00217147z"/>
 </g>
</svg>
